<svg width="240" height="100" viewBox="0 0 240 100" fill="none" xmlns="http://www.w3.org/2000/svg">
<path fill-rule="evenodd" clip-rule="evenodd" d="M5.62175 25C6.63511 25 7.62027 25.3267 8.42508 25.9297L15.963 31.5773V46.2295L27.8468 40.4808L35.1637 45.9628C35.7369 46.3923 36.2015 46.9454 36.5212 47.5791C37.5951 49.7078 36.8007 52.2637 34.7555 53.4616L27.7467 56.8517L32.3628 66.0013C33.4881 68.2318 32.5537 70.9332 30.2759 72.0351L25.1119 74.5331C22.8341 75.6349 20.0753 74.72 18.95 72.4896L14.3336 63.3395L7.3127 66.7355C5.10121 67.5897 2.55315 66.6539 1.48124 64.5293C1.16469 63.9018 1 63.2113 1 62.5114L1.00278 29.5229C1.00278 27.025 3.07077 25 5.62175 25Z" fill="#121212"/>
<path d="M45.7768 46.807C45.5489 46.807 45.3625 46.7343 45.2175 46.5889C45.0725 46.4436 45 46.2566 45 46.0282V25.7788C45 25.5504 45.0725 25.3635 45.2175 25.2181C45.3625 25.0727 45.5489 25 45.7768 25H49.0705C49.2984 25 49.4848 25.0727 49.6298 25.2181C49.7748 25.3635 49.8473 25.5504 49.8473 25.7788V32.8817L56.2482 25.5919C56.3311 25.4673 56.4657 25.3427 56.6522 25.2181C56.8593 25.0727 57.1286 25 57.4601 25H61.2198C61.4063 25 61.5616 25.0727 61.6859 25.2181C61.8102 25.3427 61.8724 25.4881 61.8724 25.6542C61.8724 25.7996 61.8309 25.9242 61.7481 26.028L53.7624 35.4362L62.3384 45.779C62.4213 45.862 62.4627 45.9867 62.4627 46.1528C62.4627 46.319 62.4006 46.4747 62.2763 46.6201C62.152 46.7447 61.9966 46.807 61.8102 46.807H57.9261C57.5533 46.807 57.2736 46.7239 57.0872 46.5578C56.9008 46.3916 56.7765 46.2774 56.7143 46.2151L49.8473 38.24V46.0282C49.8473 46.2566 49.7748 46.4436 49.6298 46.5889C49.4848 46.7343 49.2984 46.807 49.0705 46.807H45.7768Z" fill="#121212"/>
<path d="M63.8442 46.807C63.6578 46.807 63.5024 46.7447 63.3782 46.6201C63.2539 46.4747 63.1917 46.319 63.1917 46.1528C63.1917 46.049 63.2021 45.9555 63.2228 45.8724L70.618 25.8411C70.6802 25.6127 70.8045 25.4154 70.9909 25.2492C71.1773 25.0831 71.4363 25 71.7677 25H75.745C76.0764 25 76.3354 25.0831 76.5218 25.2492C76.7082 25.4154 76.8325 25.6127 76.8947 25.8411L84.2899 45.8724C84.3106 45.9555 84.321 46.049 84.321 46.1528C84.321 46.319 84.2588 46.4747 84.1346 46.6201C84.0103 46.7447 83.8549 46.807 83.6685 46.807H80.4369C80.1262 46.807 79.8983 46.7343 79.7533 46.5889C79.6083 46.4436 79.5151 46.3086 79.4737 46.184L78.1376 42.6948H69.3751L68.039 46.184C67.9976 46.3086 67.9044 46.4436 67.7594 46.5889C67.6144 46.7343 67.3865 46.807 67.0758 46.807H63.8442ZM70.5248 38.6761H76.9568L73.7564 29.7041L70.5248 38.6761Z" fill="#121212"/>
<path d="M93.9639 47.1185C92.8039 47.1185 91.706 46.9732 90.6702 46.6824C89.6345 46.3916 88.7126 45.9555 87.9048 45.374C87.0969 44.7717 86.4547 44.0344 85.9783 43.1621C85.5225 42.2898 85.274 41.2722 85.2325 40.1091C85.2325 39.9222 85.2947 39.7665 85.419 39.6419C85.5433 39.4965 85.709 39.4238 85.9161 39.4238H89.4584C89.7277 39.4238 89.9348 39.4965 90.0798 39.6419C90.2456 39.7872 90.3698 39.9949 90.4527 40.2649C90.5563 40.9295 90.7738 41.4695 91.1052 41.8849C91.4367 42.3002 91.851 42.6118 92.3481 42.8194C92.866 43.0064 93.446 43.0998 94.0882 43.0998C95.2689 43.0998 96.17 42.7156 96.7915 41.9472C97.4337 41.1787 97.7547 40.0884 97.7547 38.6761V29.1433H87.4076C87.2005 29.1433 87.0244 29.0706 86.8794 28.9253C86.7344 28.7799 86.6619 28.6033 86.6619 28.3957V25.7788C86.6619 25.5504 86.7344 25.3635 86.8794 25.2181C87.0244 25.0727 87.2005 25 87.4076 25H102.043C102.271 25 102.457 25.0727 102.602 25.2181C102.747 25.3635 102.82 25.5504 102.82 25.7788V38.8007C102.82 40.5868 102.447 42.1029 101.701 43.349C100.955 44.5744 99.9195 45.509 98.5937 46.1528C97.2679 46.7966 95.7247 47.1185 93.9639 47.1185Z" fill="#121212"/>
<path d="M108.013 46.807C107.785 46.807 107.598 46.7343 107.453 46.5889C107.308 46.4436 107.236 46.2566 107.236 46.0282V25.7788C107.236 25.5504 107.308 25.3635 107.453 25.2181C107.598 25.0727 107.785 25 108.013 25H111.524C111.752 25 111.938 25.0727 112.083 25.2181C112.228 25.3635 112.301 25.5504 112.301 25.7788V46.0282C112.301 46.2566 112.228 46.4436 112.083 46.5889C111.938 46.7343 111.752 46.807 111.524 46.807H108.013Z" fill="#121212"/>
<path d="M115.611 46.807C115.425 46.807 115.27 46.7447 115.145 46.6201C115.021 46.4747 114.959 46.319 114.959 46.1528C114.959 46.049 114.969 45.9555 114.99 45.8724L122.385 25.8411C122.447 25.6127 122.572 25.4154 122.758 25.2492C122.945 25.0831 123.203 25 123.535 25H127.512C127.844 25 128.103 25.0831 128.289 25.2492C128.475 25.4154 128.6 25.6127 128.662 25.8411L136.057 45.8724C136.078 45.9555 136.088 46.049 136.088 46.1528C136.088 46.319 136.026 46.4747 135.902 46.6201C135.777 46.7447 135.622 46.807 135.436 46.807H132.204C131.893 46.807 131.666 46.7343 131.521 46.5889C131.376 46.4436 131.282 46.3086 131.241 46.184L129.905 42.6948H121.142L119.806 46.184C119.765 46.3086 119.672 46.4436 119.527 46.5889C119.382 46.7343 119.154 46.807 118.843 46.807H115.611ZM122.292 38.6761H128.724L125.524 29.7041L122.292 38.6761Z" fill="#121212"/>
<path d="M139.54 46.807C139.313 46.807 139.126 46.7343 138.981 46.5889C138.836 46.4436 138.764 46.2566 138.764 46.0282V25.7788C138.764 25.5504 138.836 25.3635 138.981 25.2181C139.126 25.0727 139.313 25 139.54 25H142.368C142.679 25 142.907 25.0727 143.052 25.2181C143.197 25.3635 143.29 25.4777 143.331 25.5608L151.628 38.5515V25.7788C151.628 25.5504 151.7 25.3635 151.845 25.2181C151.99 25.0727 152.166 25 152.373 25H155.543C155.771 25 155.957 25.0727 156.102 25.2181C156.247 25.3635 156.32 25.5504 156.32 25.7788V46.0282C156.32 46.2359 156.247 46.4228 156.102 46.5889C155.957 46.7343 155.771 46.807 155.543 46.807H152.684C152.373 46.807 152.145 46.7343 152 46.5889C151.876 46.4228 151.783 46.3086 151.721 46.2463L143.456 33.6605V46.0282C143.456 46.2566 143.383 46.4436 143.238 46.5889C143.093 46.7343 142.907 46.807 142.679 46.807H139.54Z" fill="#121212"/>
<path d="M45.7768 74.6885C45.5489 74.6885 45.3625 74.6158 45.2175 74.4704C45.0725 74.325 45 74.1381 45 73.9097V53.6603C45 53.4318 45.0725 53.2449 45.2175 53.0995C45.3625 52.9542 45.5489 52.8815 45.7768 52.8815H49.0705C49.2984 52.8815 49.4848 52.9542 49.6298 53.0995C49.7748 53.2449 49.8473 53.4318 49.8473 53.6603V60.7631L56.2482 53.4734C56.3311 53.3488 56.4657 53.2241 56.6522 53.0995C56.8593 52.9542 57.1286 52.8815 57.4601 52.8815H61.2198C61.4063 52.8815 61.5616 52.9542 61.6859 53.0995C61.8102 53.2241 61.8724 53.3695 61.8724 53.5357C61.8724 53.6811 61.8309 53.8057 61.7481 53.9095L53.7624 63.3177L62.3384 73.6604C62.4213 73.7435 62.4627 73.8681 62.4627 74.0343C62.4627 74.2004 62.4006 74.3562 62.2763 74.5016C62.152 74.6262 61.9966 74.6885 61.8102 74.6885H57.9261C57.5533 74.6885 57.2736 74.6054 57.0872 74.4393C56.9008 74.2731 56.7765 74.1589 56.7143 74.0966L49.8473 66.1214V73.9097C49.8473 74.1381 49.7748 74.325 49.6298 74.4704C49.4848 74.6158 49.2984 74.6885 49.0705 74.6885H45.7768Z" fill="#121212"/>
<path d="M65.895 74.6885C65.6672 74.6885 65.4807 74.6158 65.3357 74.4704C65.1907 74.325 65.1182 74.1381 65.1182 73.9097V53.6603C65.1182 53.4318 65.1907 53.2449 65.3357 53.0995C65.4807 52.9542 65.6672 52.8815 65.895 52.8815H74.1292C76.7186 52.8815 78.759 53.4838 80.2505 54.6883C81.742 55.8721 82.4877 57.5855 82.4877 59.8286C82.4877 61.3447 82.1252 62.6115 81.4002 63.6292C80.6752 64.6469 79.7016 65.4049 78.4794 65.9034L82.8606 73.6916C82.9227 73.8162 82.9538 73.9304 82.9538 74.0343C82.9538 74.2004 82.8917 74.3562 82.7674 74.5016C82.6431 74.6262 82.4877 74.6885 82.3013 74.6885H78.8522C78.4794 74.6885 78.1997 74.595 78.0133 74.4081C77.8268 74.2004 77.6922 74.0135 77.6093 73.8473L73.8185 66.7133H70.0587V73.9097C70.0587 74.1381 69.9862 74.325 69.8412 74.4704C69.6962 74.6158 69.5098 74.6885 69.2819 74.6885H65.895ZM70.0587 62.7569H74.036C75.1753 62.7569 76.0143 62.4973 76.5529 61.9781C77.1122 61.4589 77.3918 60.732 77.3918 59.7974C77.3918 58.8628 77.1225 58.1255 76.5839 57.5855C76.0454 57.0456 75.196 56.7756 74.036 56.7756H70.0587V62.7569Z" fill="#121212"/>
<path d="M87.0753 74.6885C86.8474 74.6885 86.661 74.6158 86.516 74.4704C86.371 74.325 86.2985 74.1381 86.2985 73.9097V53.6603C86.2985 53.4318 86.371 53.2449 86.516 53.0995C86.661 52.9542 86.8474 52.8815 87.0753 52.8815H101.151C101.379 52.8815 101.565 52.9542 101.71 53.0995C101.855 53.2449 101.928 53.4318 101.928 53.6603V56.1525C101.928 56.3602 101.855 56.5367 101.71 56.6821C101.565 56.8275 101.379 56.9002 101.151 56.9002H91.0836V61.7912H100.468C100.695 61.7912 100.882 61.8639 101.027 62.0093C101.172 62.1546 101.244 62.3416 101.244 62.57V64.8753C101.244 65.083 101.172 65.2595 101.027 65.4049C100.882 65.5503 100.695 65.623 100.468 65.623H91.0836V70.6698H101.4C101.628 70.6698 101.814 70.7424 101.959 70.8878C102.104 71.0332 102.176 71.2201 102.176 71.4486V73.9097C102.176 74.1381 102.104 74.325 101.959 74.4704C101.814 74.6158 101.628 74.6885 101.4 74.6885H87.0753Z" fill="#121212"/>
<path d="M104.597 74.6885C104.41 74.6885 104.255 74.6262 104.13 74.5016C104.006 74.3562 103.944 74.2004 103.944 74.0343C103.944 73.9304 103.954 73.837 103.975 73.7539L111.37 53.7226C111.432 53.4941 111.557 53.2968 111.743 53.1307C111.93 52.9645 112.189 52.8815 112.52 52.8815H116.497C116.829 52.8815 117.088 52.9645 117.274 53.1307C117.461 53.2968 117.585 53.4941 117.647 53.7226L125.042 73.7539C125.063 73.837 125.073 73.9304 125.073 74.0343C125.073 74.2004 125.011 74.3562 124.887 74.5016C124.763 74.6262 124.607 74.6885 124.421 74.6885H121.189C120.878 74.6885 120.651 74.6158 120.506 74.4704C120.361 74.325 120.267 74.19 120.226 74.0654L118.89 70.5763H110.127L108.791 74.0654C108.75 74.19 108.657 74.325 108.512 74.4704C108.367 74.6158 108.139 74.6885 107.828 74.6885H104.597ZM111.277 66.5576H117.709L114.509 57.5855L111.277 66.5576Z" fill="#121212"/>
<path d="M131.065 74.6885C130.837 74.6885 130.651 74.6158 130.506 74.4704C130.361 74.325 130.288 74.1381 130.288 73.9097V57.2117H124.633C124.426 57.2117 124.25 57.139 124.105 56.9936C123.96 56.8483 123.887 56.6717 123.887 56.464V53.6603C123.887 53.4318 123.96 53.2449 124.105 53.0995C124.25 52.9542 124.426 52.8815 124.633 52.8815H140.915C141.143 52.8815 141.329 52.9542 141.474 53.0995C141.619 53.2449 141.692 53.4318 141.692 53.6603V56.464C141.692 56.6717 141.619 56.8483 141.474 56.9936C141.329 57.139 141.143 57.2117 140.915 57.2117H135.291V73.9097C135.291 74.1381 135.219 74.325 135.073 74.4704C134.928 74.6158 134.742 74.6885 134.514 74.6885H131.065Z" fill="#121212"/>
<path d="M152.955 75C151.07 75 149.444 74.6885 148.076 74.0654C146.709 73.4424 145.642 72.5078 144.876 71.2617C144.109 69.9948 143.695 68.406 143.633 66.4953C143.612 65.6022 143.602 64.7196 143.602 63.8473C143.602 62.9542 143.612 62.0508 143.633 61.137C143.695 59.2678 144.109 57.6998 144.876 56.4329C145.663 55.1452 146.74 54.1795 148.107 53.5357C149.495 52.8919 151.111 52.5699 152.955 52.5699C154.778 52.5699 156.373 52.8919 157.74 53.5357C159.128 54.1795 160.215 55.1452 161.002 56.4329C161.79 57.6998 162.204 59.2678 162.245 61.137C162.287 62.0508 162.308 62.9542 162.308 63.8473C162.308 64.7196 162.287 65.6022 162.245 66.4953C162.183 68.406 161.769 69.9948 161.002 71.2617C160.236 72.5078 159.169 73.4424 157.802 74.0654C156.435 74.6885 154.819 75 152.955 75ZM152.955 70.9813C154.156 70.9813 155.14 70.6178 155.907 69.8909C156.694 69.1433 157.108 67.9595 157.15 66.3395C157.191 65.4257 157.212 64.5742 157.212 63.785C157.212 62.975 157.191 62.1235 157.15 61.2304C157.129 60.1505 156.932 59.2678 156.559 58.5824C156.186 57.8971 155.689 57.3986 155.068 57.0871C154.467 56.7548 153.763 56.5887 152.955 56.5887C152.147 56.5887 151.432 56.7548 150.811 57.0871C150.189 57.3986 149.692 57.8971 149.319 58.5824C148.967 59.2678 148.77 60.1505 148.729 61.2304C148.708 62.1235 148.698 62.975 148.698 63.785C148.698 64.5742 148.708 65.4257 148.729 66.3395C148.791 67.9595 149.205 69.1433 149.972 69.8909C150.738 70.6178 151.733 70.9813 152.955 70.9813Z" fill="#121212"/>
<path d="M166.941 74.6885C166.713 74.6885 166.527 74.6158 166.382 74.4704C166.237 74.325 166.164 74.1381 166.164 73.9097V53.6603C166.164 53.4318 166.237 53.2449 166.382 53.0995C166.527 52.9542 166.713 52.8815 166.941 52.8815H175.175C177.765 52.8815 179.805 53.4838 181.297 54.6883C182.788 55.8721 183.534 57.5855 183.534 59.8286C183.534 61.3447 183.171 62.6115 182.446 63.6292C181.721 64.6469 180.748 65.4049 179.526 65.9034L183.907 73.6916C183.969 73.8162 184 73.9304 184 74.0343C184 74.2004 183.938 74.3562 183.814 74.5016C183.689 74.6262 183.534 74.6885 183.347 74.6885H179.898C179.526 74.6885 179.246 74.595 179.059 74.4081C178.873 74.2004 178.738 74.0135 178.656 73.8473L174.865 66.7133H171.105V73.9097C171.105 74.1381 171.032 74.325 170.887 74.4704C170.742 74.6158 170.556 74.6885 170.328 74.6885H166.941ZM171.105 62.7569H175.082C176.222 62.7569 177.06 62.4973 177.599 61.9781C178.158 61.4589 178.438 60.732 178.438 59.7974C178.438 58.8628 178.169 58.1255 177.63 57.5855C177.092 57.0456 176.242 56.7756 175.082 56.7756H171.105V62.7569Z" fill="#121212"/>
<path d="M160.495 32V25.4545H163.225C163.715 25.4545 164.125 25.5238 164.455 25.6623C164.788 25.8008 165.037 25.9947 165.203 26.244C165.371 26.4933 165.456 26.782 165.456 27.1101C165.456 27.3594 165.403 27.582 165.299 27.7781C165.195 27.9719 165.051 28.1328 164.868 28.2607C164.684 28.3885 164.472 28.478 164.232 28.5291V28.593C164.496 28.6058 164.74 28.6772 164.963 28.8072C165.189 28.9371 165.37 29.1183 165.507 29.3505C165.643 29.5806 165.711 29.8533 165.711 30.1687C165.711 30.5202 165.622 30.8345 165.443 31.1115C165.264 31.3864 165.005 31.6037 164.666 31.7635C164.327 31.9212 163.916 32 163.433 32H160.495ZM162.077 30.7248H163.055C163.398 30.7248 163.651 30.6598 163.813 30.5298C163.977 30.3999 164.059 30.2188 164.059 29.9865C164.059 29.8182 164.02 29.6733 163.941 29.5518C163.862 29.4283 163.75 29.3335 163.605 29.2674C163.46 29.1992 163.287 29.1651 163.084 29.1651H162.077V30.7248ZM162.077 28.1456H162.953C163.126 28.1456 163.279 28.1168 163.413 28.0593C163.548 28.0018 163.652 27.9187 163.727 27.81C163.803 27.7013 163.842 27.5703 163.842 27.4169C163.842 27.1974 163.764 27.0249 163.608 26.8991C163.453 26.7734 163.243 26.7106 162.979 26.7106H162.077V28.1456ZM166.517 32V25.4545H171.081V26.7393H168.099V28.0817H170.848V29.3697H168.099V30.7152H171.081V32H166.517ZM171.903 26.7393V25.4545H177.435V26.7393H175.45V32H173.89V26.7393H171.903ZM178.851 32H177.151L179.359 25.4545H181.465L183.674 32H181.973L180.436 27.1037H180.385L178.851 32ZM178.624 29.424H182.178V30.6257H178.624V29.424Z" fill="#121212"/>
</svg>
