<svg width="50" height="50" viewBox="0 0 16 16" fill="none" xmlns="http://www.w3.org/2000/svg">
<path d="M15 6.56135C13.6238 6.56464 12.2814 6.13547 11.1623 5.33448V10.9209C11.1619 11.9556 10.8457 12.9654 10.2558 13.8155C9.66598 14.6656 8.83066 15.3154 7.86155 15.6779C6.89244 16.0404 5.83575 16.0985 4.83276 15.8443C3.82977 15.59 2.9283 15.0357 2.24889 14.2553C1.56947 13.475 1.14449 12.5058 1.03078 11.4774C0.91707 10.449 1.12004 9.41041 1.61256 8.50048C2.10508 7.59055 2.86367 6.85266 3.78689 6.38548C4.71011 5.91831 5.75396 5.74411 6.77887 5.88618V8.69595C6.30987 8.54844 5.80625 8.55288 5.33993 8.70865C4.87361 8.86442 4.46843 9.16355 4.18227 9.56332C3.8961 9.96309 3.74357 10.4431 3.74647 10.9347C3.74936 11.4263 3.90753 11.9044 4.19839 12.3008C4.48925 12.6972 4.89792 12.9915 5.36604 13.1418C5.83417 13.2921 6.3378 13.2906 6.80503 13.1375C7.27226 12.9845 7.67918 12.6878 7.96769 12.2897C8.2562 11.8916 8.41154 11.4125 8.41153 10.9209V0H11.1623C11.1604 0.23229 11.1799 0.464263 11.2205 0.692988C11.3161 1.20358 11.5148 1.68931 11.8046 2.12045C12.0943 2.5516 12.469 2.91911 12.9056 3.2005C13.5269 3.61126 14.2552 3.83019 15 3.83003V6.56135Z" fill="black"/>
</svg>
